<svg width="256" height="256" viewBox="0 0 256 256" fill="none" xmlns="http://www.w3.org/2000/svg">
<rect width="256" height="256" fill="#E30051"/>
<path d="M233.97 91.6344L183.035 135.174L153.601 160.327C150.537 162.974 146.603 164.422 142.552 164.422H116.636C116.098 164.422 115.848 163.75 116.258 163.404L140.335 142.813L151.339 133.399L187.322 102.638C187.553 102.433 187.918 102.708 187.758 103.003L180.485 116.128C180.324 116.403 180.67 116.679 180.92 116.474L206.369 94.7169C209.451 92.0894 213.367 90.6411 217.417 90.6411H233.605C234.137 90.6411 234.367 91.2884 233.97 91.628V91.6344ZM186.483 90.6219H170.321C166.27 90.6219 162.329 92.0702 159.247 94.7169L131.273 118.646C131.017 118.851 130.677 118.576 130.838 118.281L138.111 105.156C138.272 104.881 137.925 104.605 137.676 104.81L100.013 137.007L88.4324 146.908L69.1428 163.397C68.7326 163.75 68.9825 164.422 69.5209 164.416H89.5795H95.5395C99.5897 164.416 103.531 162.968 106.613 160.34L135.926 135.161L186.874 91.6216C187.265 91.2756 187.034 90.6091 186.483 90.6091V90.6219ZM139.38 90.6219H123.218C119.168 90.6219 115.226 92.0702 112.144 94.7169L81.6137 120.825C81.3574 121.03 81.0178 120.755 81.178 120.46L88.4516 107.335C88.6119 107.06 88.2658 106.784 88.0159 106.989L47.8152 141.365L36.235 151.266L22.0337 163.404C21.6235 163.756 21.8734 164.429 22.4118 164.422L42.4705 164.314H48.4304C52.4806 164.314 56.4218 162.865 59.5043 160.238L83.7222 139.519L139.758 91.628C140.149 91.282 139.919 90.6155 139.367 90.6155L139.38 90.6219ZM31.5567 143.877L78.5441 103.702L97.2826 69.9031C97.4877 69.5122 97.2377 69.0508 96.802 69.0508H80.9601C75.6666 69.0508 70.809 71.909 68.252 76.536L31.1146 143.537C30.9543 143.813 31.3196 144.088 31.5503 143.883L31.5567 143.877ZM224.46 111.174L177.472 151.349L158.734 185.148C158.529 185.539 158.779 186 159.215 186H175.056C180.35 186 185.208 183.142 187.765 178.515L224.902 111.514C225.062 111.238 224.697 110.963 224.466 111.168L224.46 111.174Z" fill="#FCFCFC"/>
</svg>
